<svg xmlns="http://www.w3.org/2000/svg" viewBox="0 0 331.61 331.61"><defs><style>.cls-1{fill:#fff;}.cls-2{fill:#071d49;}.cls-3{fill:none;stroke:#071d49;stroke-miterlimit:10;stroke-width:10px;}</style></defs><title>Mesa de trabajo 5 copia 18</title><g id="Capa_6" data-name="Capa 6"><circle class="cls-1" cx="165.81" cy="165.81" r="155.44"/><path class="cls-2" d="M262.38,93.27l4.51,47.06c-4.91.73-5.79.24-5.93-4.5A50.49,50.49,0,0,0,249.79,105c-3.76-4.68-8.25-8.5-15.28-8.19-10.63.46-21.3.12-32.33.12v70.74h26.63v-21.4h8.66v47.43h-8.53V172.22H202.19v62.63l9.64.45c-1.48,2.89-27.14,4-36.73,2.05l-.34-1.44,9.78-1.31V97.45c-3.11-.4-6.3-.77-9.44-1.34a14.65,14.65,0,0,1,0-2.84Z"/><path class="cls-2" d="M144.49,93,149,140.41c-3.68.75-5.67.9-6.27-3.7-1.69-12.8-5.33-25.47-14.61-34.62-11.69-11.53-26.79-11.67-38.33,3.68-6.1,8.12-7.72,17.7-7.9,27.35q-.59,32.23,0,64.49c.18,10.19,2.56,19.87,8.48,28.73,10.18,15.23,30.18,13.61,40.4-.18,7.05-9.51,10.51-20.54,12.07-32.17.45-3.36,2-4.67,6.12-3.6l-4.41,47.48c-1.92,0-3.86-.12-5.78,0-8,.59-16.06,1.44-24.1,1.87-10.93.58-21.33-1.25-30-8.58-14-11.85-19.86-27.32-19.84-45.34,0-14.83-.44-29.68.13-44.49a57.05,57.05,0,0,1,15.62-37.71c10.54-11.31,24-12.67,38.19-11.57,2.61.2,5.2.8,7.81.86C132.44,93.06,138.26,93,144.49,93Z"/><circle class="cls-3" cx="165.81" cy="165.81" r="160.81"/></g></svg>